<svg xmlns="http://www.w3.org/2000/svg" xmlns:xlink="http://www.w3.org/1999/xlink" viewBox="0 0 1101.12 833.76">
    <defs>
        <style>
            .cls-1 {
                fill: url(#linear-gradient);
            }
            .cls-2 {
                fill: #259cb9;
            }
            .cls-3,
            .cls-6 {
                font-size: 17.77px;
            }
            .cls-3,
            .cls-5,
            .cls-6 {
                fill: #2f5770;
            }
            .cls-10,
            .cls-11,
            .cls-12,
            .cls-13,
            .cls-3,
            .cls-5,
            .cls-6,
            .cls-7,
            .cls-8,
            .cls-9 {
                font-family: Oswald-Regular, Oswald;
            }
            .cls-3 {
                letter-spacing: -0.01em;
            }
            .cls-4 {
                letter-spacing: 0em;
            }
            .cls-5 {
                font-size: 12.93px;
            }
            .cls-7 {
                font-size: 59.68px;
            }
            .cls-10,
            .cls-11,
            .cls-12,
            .cls-7,
            .cls-8,
            .cls-9 {
                fill: #fff;
            }
            .cls-8 {
                font-size: 15.54px;
            }
            .cls-9 {
                font-size: 30.35px;
            }
            .cls-10 {
                font-size: 19.23px;
            }
            .cls-11 {
                font-size: 17.29px;
            }
            .cls-12 {
                font-size: 53.88px;
            }
            .cls-13 {
                font-size: 24.38px;
                fill: #de1e64;
            }
        </style>
        <linearGradient id="linear-gradient" x1="2823.47" y1="991.36" x2="2823.47" y2="826.41" gradientTransform="translate(-2704.34 -147.99)" gradientUnits="userSpaceOnUse">
            <stop offset="0" stop-color="#db487e" stop-opacity="0.1" />
            <stop offset="1" stop-color="#db487e" />
        </linearGradient>
    </defs>
    <g id="imagen"><image width="4588" height="3474" transform="translate(0 0) scale(0.24)" xlink:href="grafico-mixto-01.png" /></g>
    <g id="Rectangulo_degrade" data-name="Rectangulo degrade"><rect class="cls-1" x="109.06" y="678.42" width="20.13" height="164.96" transform="translate(-641.68 880.1) rotate(-90)" /></g>
    <g id="Gotas_celestes" data-name="Gotas celestes">
        <path class="cls-2" d="M946.77,762.93a12.78,12.78,0,1,1-25.56,0c0-7.06,12.78-26.76,12.78-26.76S946.77,755.87,946.77,762.93Z" transform="translate(0.09 0.08)" />
        <path class="cls-2" d="M303.44,235.92a67.06,67.06,0,0,1-134.11,0c0-37,67-140.39,67-140.39S303.44,198.89,303.44,235.92Z" transform="translate(0.09 0.08)" />
        <path class="cls-2" d="M636.4,269.54a19,19,0,0,1-38,0c0-10.49,19-39.77,19-39.77S636.4,259.05,636.4,269.54Z" transform="translate(0.09 0.08)" />
        <path class="cls-2" d="M605.78,446.71a23.26,23.26,0,1,1-46.52,0c0-12.84,23.26-48.69,23.26-48.69S605.78,433.87,605.78,446.71Z" transform="translate(0.09 0.08)" />
        <path class="cls-2" d="M372.65,500.76a37.21,37.21,0,1,1-74.42,0c0-20.56,37.21-77.92,37.21-77.92S372.65,480.2,372.65,500.76Z" transform="translate(0.09 0.08)" />
        <path class="cls-2" d="M946.32,556a17.14,17.14,0,0,1-34.27,0c0-9.46,17.14-35.87,17.14-35.87S946.32,546.57,946.32,556Z" transform="translate(0.09 0.08)" />
        <path class="cls-2" d="M861.6,301.13a76.76,76.76,0,0,1-153.52,0c0-42.39,76.76-160.71,76.76-160.71S861.6,258.74,861.6,301.13Z" transform="translate(0.09 0.08)" />
    </g>
    <g id="Texto_azul" data-name="Texto azul">
        <text class="cls-3" transform="translate(36.74 741.13)">
            P
            <tspan class="cls-4" x="8.42" y="0">oblación Mundial</tspan>
        </text>
        <text class="cls-5" transform="translate(37.49 786.25)">60%</text>
        <text class="cls-5" transform="translate(183.5 786.25)">1%</text>
        <text class="cls-6" transform="translate(958.62 752.33)">
            Distribución del
            <tspan x="0" y="21.33">Agua Mundial</tspan>
        </text>
        <text class="cls-7" transform="translate(729.88 323.88)">33%</text>
        <text class="cls-8" transform="translate(918.64 561.76)">3%</text>
        <text class="cls-9" transform="translate(308.36 513.28)">16%</text>
        <text class="cls-10" transform="translate(565.26 454.77)">10%</text>
        <text class="cls-11" transform="translate(605.48 275.64)">8%</text>
        <text class="cls-12" transform="translate(186.07 253.85)">29%</text>
    </g>
    <g id="Texto_rosado_100_" data-name="Texto rosado 100%">
        <text class="cls-13" transform="matrix(0.6, 0.8, -0.8, 0.6, 95.46, 229.09)">A</text>
        <text class="cls-13" transform="translate(102.4 238.05) rotate(62.75)">m</text>
        <text class="cls-13" transform="translate(109.53 252.31) rotate(71.29)">é</text>
        <text class="cls-13" transform="matrix(0.23, 0.97, -0.97, 0.23, 112.64, 261.62)">r</text>
        <text class="cls-13" transform="matrix(0.15, 0.99, -0.99, 0.15, 114.3, 268.93)">i</text>
        <text class="cls-13" transform="translate(115.21 274.06) rotate(86.23)">c</text>
        <text class="cls-13" transform="translate(115.88 283.55) rotate(92.92)">a</text>
        <text class="cls-13" transform="matrix(-0.14, 0.99, -0.99, -0.14, 115.26, 293.53)"></text>
        <text class="cls-13" transform="translate(114.5 298.84) rotate(100.97)">d</text>
        <text class="cls-13" transform="translate(112.2 309.82) rotate(98.53)">e</text>
        <text class="cls-13" transform="translate(110.65 321.25) rotate(92.11)">l</text>
        <text class="cls-13" transform="translate(110.46 327.77) rotate(87.28)"></text>
        <text class="cls-13" transform="translate(110.66 334.82) rotate(79.93)">N</text>
        <text class="cls-13" transform="translate(113.4 349) rotate(71.95)">o</text>
        <text class="cls-13" transform="matrix(0.4, 0.92, -0.92, 0.4, 117.05, 359.8)">r</text>
        <text class="cls-13" transform="translate(120.5 367.69) rotate(62.7)">t</text>
        <text class="cls-13" transform="matrix(0.52, 0.85, -0.85, 0.52, 124.28, 375.06)">e</text>
        <text class="cls-13" transform="translate(240.02 511.84) rotate(54.25)">A</text>
        <text class="cls-13" transform="translate(247.04 521.18) rotate(58.49)">m</text>
        <text class="cls-13" transform="matrix(0.38, 0.92, -0.92, 0.38, 255.25, 534.77)">é</text>
        <text class="cls-13" transform="matrix(0.27, 0.96, -0.96, 0.27, 258.93, 543.82)">r</text>
        <text class="cls-13" transform="matrix(0.19, 0.98, -0.98, 0.19, 260.91, 551.03)">i</text>
        <text class="cls-13" transform="translate(262.01 556.18) rotate(83.08)">c</text>
        <text class="cls-13" transform="matrix(0.05, 1, -1, 0.05, 263.18, 565.78)">a</text>
        <text class="cls-13" transform="translate(263.6 575.99) rotate(89.63)"></text>
        <text class="cls-13" transform="translate(263.65 581.48) rotate(91.07)">d</text>
        <text class="cls-13" transform="translate(263.43 592.21) rotate(91.57)">e</text>
        <text class="cls-13" transform="translate(263.15 602.48) rotate(90.85)">l</text>
        <text class="cls-13" transform="translate(263.06 608.31) rotate(89.44)"></text>
        <text class="cls-13" transform="translate(263.05 614.49) rotate(86.49)">S</text>
        <text class="cls-13" transform="translate(263.85 627.06) rotate(81.02)">u</text>
        <text class="cls-13" transform="translate(265.85 638.88) rotate(74.54)">r</text>
        <text class="cls-13" transform="translate(571.82 613.13) rotate(-13.08)">Á</text>
        <text class="cls-13" transform="translate(584.11 610.26) rotate(-16.33)">f</text>
        <text class="cls-13" transform="translate(591.7 608.08) rotate(-20.94)">r</text>
        <text class="cls-13" transform="translate(600.15 604.77) rotate(-27.14)">i</text>
        <text class="cls-13" transform="matrix(0.8, -0.6, 0.6, 0.8, 606.93, 601.4)">c</text>
        <text class="cls-13" transform="matrix(0.58, -0.82, 0.82, 0.58, 617.54, 592.89)">a</text>
        <text class="cls-13" transform="matrix(0.5, -0.86, 0.86, 0.5, 521.43, 222.27)">E</text>
        <text class="cls-13" transform="translate(526.28 213.64) rotate(-59.38)">u</text>
        <text class="cls-13" transform="translate(531.61 204.62) rotate(-55.72)">r</text>
        <text class="cls-13" transform="translate(535.68 198.42) rotate(-50.25)">o</text>
        <text class="cls-13" transform="translate(541.79 190.87) rotate(-41.57)">p</text>
        <text class="cls-13" transform="matrix(0.86, -0.51, 0.51, 0.86, 549.25, 184.11)">a</text>
        <text class="cls-13" transform="translate(851.61 575.63) rotate(-90.85)">O</text>
        <text class="cls-13" transform="translate(851.12 562.8) rotate(-86.82)">c</text>
        <text class="cls-13" transform="matrix(0.24, -0.97, 0.97, 0.24, 851.39, 553.67)">e</text>
        <text class="cls-13" transform="translate(853.29 545.02) rotate(-60.05)">a</text>
        <text class="cls-13" transform="translate(857.29 536.87) rotate(-42.8)">n</text>
        <text class="cls-13" transform="translate(864.59 530.28) rotate(-31.9)">í</text>
        <text class="cls-13" transform="translate(868.55 527.48) rotate(-23.5)">a</text>
        <text class="cls-13" transform="translate(873.85 110.75)">Asia</text>
    </g>
</svg>
