<svg xmlns="http://www.w3.org/2000/svg" xmlns:xlink="http://www.w3.org/1999/xlink" viewBox="0 0 1027.26 723.89">
    <defs>
        <style>
            .cls-1,
            .cls-2,
            .cls-20,
            .cls-3,
            .cls-4,
            .cls-5,
            .cls-6,
            .cls-7 {
                fill: #de2064;
            }
            .cls-1 {
                fill-opacity: 0.1;
            }
            .cls-1,
            .cls-2,
            .cls-3,
            .cls-4,
            .cls-5,
            .cls-6,
            .cls-7 {
                stroke: #db487e;
                stroke-width: 0.99px;
            }
            .cls-1,
            .cls-2,
            .cls-4,
            .cls-5,
            .cls-6,
            .cls-7 {
                stroke-linecap: round;
                stroke-linejoin: round;
            }
            .cls-2 {
                fill-opacity: 0.2;
            }
            .cls-3 {
                stroke-miterlimit: 10;
                opacity: 0.2;
            }
            .cls-4 {
                fill-opacity: 0.4;
            }
            .cls-6 {
                fill-opacity: 0.8;
            }
            .cls-7 {
                fill-opacity: 0.6;
            }
            .cls-8 {
                fill: url(#linear-gradient);
            }
            .cls-9 {
                fill: #279dba;
            }
            .cls-10,
            .cls-13 {
                font-size: 17.77px;
            }
            .cls-10,
            .cls-12,
            .cls-13 {
                fill: #2f576f;
            }
            .cls-10,
            .cls-12,
            .cls-13,
            .cls-14,
            .cls-15,
            .cls-16,
            .cls-17,
            .cls-18,
            .cls-19,
            .cls-20 {
                font-family: Oswald-Regular, Oswald;
            }
            .cls-10 {
                letter-spacing: -0.01em;
            }
            .cls-11 {
                letter-spacing: 0em;
            }
            .cls-12 {
                font-size: 12.93px;
            }
            .cls-14 {
                font-size: 59.68px;
            }
            .cls-14,
            .cls-15,
            .cls-16,
            .cls-17,
            .cls-18,
            .cls-19 {
                fill: #fff;
            }
            .cls-15 {
                font-size: 15.54px;
            }
            .cls-16 {
                font-size: 30.35px;
            }
            .cls-17 {
                font-size: 19.23px;
            }
            .cls-18 {
                font-size: 17.29px;
            }
            .cls-19 {
                font-size: 53.88px;
            }
            .cls-20 {
                font-size: 24.38px;
            }
        </style>
        <linearGradient id="linear-gradient" x1="2823.47" y1="991.36" x2="2823.47" y2="826.41" gradientTransform="translate(-2704.34 -147.99)" gradientUnits="userSpaceOnUse">
            <stop offset="0" stop-color="#db487e" stop-opacity="0.1" />
            <stop offset="1" stop-color="#db487e" />
        </linearGradient>
    </defs>
    <g id="Rosado_10_" data-name="Rosado 10%">
        <path
            class="cls-1"
            d="M927.16,504c4.46-.78,7.87,2.64,12.21,2.92,3.69.25,2.18,2.85.73,4.58-3.18,3.78-.75,6.48,2.15,8.15,2.58,1.48,5,2.54,7.28,4.88,2.52,2.58,5.73.11,5.86-3.21.19-5.23,3.84-9.87,2.3-15.33-.41-1.44-.14-3,1.71-3.28,1.65-.26,2.67.86,3.22,2.27,1.79,4.57,4.72,9.1,5,13.77A31.67,31.67,0,0,0,977.14,540c6.62,6.72,8.4,15.6,11.31,24,.44,1.27.64,3.19,0,4.18-7,10.8-10.28,23.57-18.85,33.69-3.58,4.23-8,6.39-12,9.6-1.68,1.36-2.8.52-4.45.09-7-1.8-16.38.23-16.76-11.31-6.67-2.34-6.54-6.71-3.54-11.92l.78-.54c-.16,0-.39-.08-.46,0a1.7,1.7,0,0,0-.29.57c-2.32,1.19-7.28-.5-8.26-3.07-2.37-6.17-12.6-8.22-18-6.89-5.9,1.46-12.18,2.14-17.32,6.07-3.21,2.46-7.22,2.1-11,2.21-2.12.06-4.58-.54-5.91,1.58-2.44,3.88-5,2-7.9.75-4.24-1.76-2.73-7.06-2.23-7.69,6-7.59.58-15-.08-22.24-.83-9.05,2.56-19.6,8.93-22.13,4.9-2,10.46-1.61,15.36-4.28,3-1.63,6.25-2.3,6.52-6.49.09-1.41.94-3.69,2.09-3.24,7,2.74,6.26-3.4,8-6.61,2.88-5.32,5.72-5.77,10-1.68,3.4,3.25,6.63,5,7.26-2,.4-4.45,5-5.33,6.81-8.62Z"
            transform="translate(-36.65 -66)"
        />
        <path
            class="cls-1"
            d="M1042,599.79c2.81,2.35,3,5.18,3.87,7.84,1.23,4,1.94,8.38,7.52,9.56,3.88.81,2.18,3.26.17,5-13.1,11.55-27,22.28-37.58,36.43-1.59,2.12-3.54,5.41-7.33,1.65-3.46-3.43-3.51-6.49-.58-9.89,3.61-4.2,9.18-5.48,13.54-8.67a20.92,20.92,0,0,0,5.9-5.81c1.76-2.81,3-8.76,8.35-3.16.8.84,2.22,0,3.14-.92,1.65-1.56,1.94-3.58.59-5.11-2.23-2.53-1.07-3.53.9-5.62,5-5.29.75-12,1.81-18A13,13,0,0,0,1042,599.79Z"
            transform="translate(-36.65 -66)"
        />
        <path
            class="cls-1"
            d="M956.37,474.65c-3.87-2.27-7.77-5.32-12.17-1.3s-7.54,5.56-8.36-2.41c-.33-3.16-3.18-3.19-5.45-3.52a22.25,22.25,0,0,0-4.66.24c.43,2.09,1.07,4,2.92,5.42.59.43,1.66.62,1.2,2.07-1.19,3.72.06,4,4,4.28,5.52.36,13.31,2.61,13.92,7.94.73,6.4,4.47,6.28,8.07,7.89,3.09,2,5.45,2.74,8-1.37s6.13-3.66,9.13.44c2.36,3.23,5,6.35,10,4.85C977.13,487.44,970.55,476.89,956.37,474.65Z"
            transform="translate(-36.65 -66)"
        />
        <path
            class="cls-1"
            d="M957.87,623.82c.18,4.07-3.18,6.25-4.86,9.25-.94,1.67-2.45,4.13-4.83,3.16-1.72-.7-1.95-3.17-1.91-5.07s1-3.9.56-5.6c-1.22-4.73-.13-5.09,3.47-2.31C952.61,625.05,955.37,622.79,957.87,623.82Z"
            transform="translate(-36.65 -66)"
        />
        <path class="cls-1" d="M1023.82,534.73c5,1.89,7.15,6.08,10.32,9.74C1030,544.15,1027.12,541.35,1023.82,534.73Z" transform="translate(-36.65 -66)" />
        <path class="cls-1" d="M980.51,483.69c3.86-.82,7.44-.06,10.85-2.74C989.13,487.69,987.62,488,980.51,483.69Z" transform="translate(-36.65 -66)" />
    </g>
    <g id="Rosado_20_" data-name="Rosado 20%">
        <path
            class="cls-2"
            d="M344.06,213.27c-.58-2.91-.49-4.49-1.19-5.53-1.17-1.75-2.89-3.29-5.27-2a3.67,3.67,0,0,0-1.59,5c1,2.38,2.73,4.46,3.77,6.84a6.09,6.09,0,0,1-1.58,7.16c-2.45,2.45-2.55-2.3-4.76-1.19.88,7-1.26,6.65-5.87,2.39-1.88-1.75-4.1-3-5.32-5.45-2.38-4.86-4.62-9.92-11.82-8.13-2.27.56-3.58-1.06-3-3.5s1.23-3.57,4.3-1.83,6.16,1.37,7.48-3.33c.62-2.22,3.42-3.79,5.09-5.77,3.84-4.57,3.13-9.52-2.23-11.43-3.33-1.18-1-3.05-1.45-4.49-.87-2.91,1-6.66-5.75-5.11-4.21,1-11-.54-15.47-2.88-4.74-2.51-7.72-7.6-5.31-14.4,2.73-7.67,9.3-13.44,17.31-12.81-5,5.51-11,10.51-6.59,19.64,1.09-4,1.88-7.41,2.92-10.72a8.52,8.52,0,0,1,7.69-6.29c3.59-.42,6,.53,4.4,4.61s-.37,6.12,3.88,5.33c5.14-.95,6.88,1.34,8.63,5.84,1.42,3.67,4.36,7.72,7.73,9.47,6.3,3.27,5.84,8.63,3.45,12.37-2.55,4-2.07,5.6,1.12,7.95a23.92,23.92,0,0,1,6.16,7.42C353.64,207.52,347.67,209.07,344.06,213.27Z"
            transform="translate(-36.65 -66)"
        />
        <path
            class="cls-2"
            d="M235.38,156.92c-1-3.43-3.2-4-5.64-4.39-2-.28-5.11.68-5.13-2.28,0-3.55,3.76-1.73,6.12-3.1-2.31-2.08-4.81-4.15-.33-6.75a65.11,65.11,0,0,1,8.73-4.55c3.13-1.25,5.73,1.27,5.75,2.34.12,4.84,4.37,6.68,6.33,10.13,2.07-.7,1.61-2.51,1.79-4.11s-2.59-3.79.22-4.87c2.12-.81,4,1.07,5.72,2.3s2.41,3.59.85,5c-5.92,5.22-3.49,10.52-.37,15.65,2.49,4.1-1.64,5.37-2.88,7.79s-3.35,2.49-6,1.17a14.58,14.58,0,0,0-10.82-1.12c-8.72,2.59-14.4.07-17.71-7.82-.91-2.16.12-4.29,1.09-6.13,1.31-2.48,3.21-.83,4.92-.25C230.2,156.63,232.35,157.82,235.38,156.92Z"
            transform="translate(-36.65 -66)"
        />
        <path
            class="cls-2"
            d="M394.75,76.88c-2.08-3.06-5.47-4.74-8.87-6.64-9.64-5.37-20.07-1.06-29.78-3.68a2.16,2.16,0,0,0-2.53,2c-.8,4.93-2.86,4.71-6.88,2.75-4.86-2.38-10.32,1-8.79,5.12,2.72,7.35-1.49,14-1,20.76.53,7.08-3.21,8.38-8.34,9.09a18.37,18.37,0,0,0,7.3-13.18c.43-4.6-4.84-8-2.58-13.07a2.93,2.93,0,0,0-1.44-3.66c-2.4-1.16-2.6,1.23-3.54,2.33-5.09,6-10.33,11.56-11,20.25-.27,3.42-2.6,6.75.6,9.64,3.4,3.07,6.23.17,9.15-1.3-2.43,5.47-5.21,10.68-10.82,13.69-1.22.65-2.87.86-2.75,2.7.11,1.66,1.56,2.09,2.82,2.76,4.41,2.38,9.31,2,14,2.89,2.45.48,5.2,2.76,7.23,1,2.81-2.46-2.58-3.87-1.78-6.5-.58-.31-1.2-.63-.34-1.28a7.17,7.17,0,0,1,.79.82c8,.38,14.16-5.73,16.28-10.76,2.72-6.45,6.34-9.19,11.94-11.37,1.72-.67,3-2.31,4.68-3.25,7.63-4.33,15-9.34,23.08-12.58C398,83.06,397,80.17,394.75,76.88ZM341.3,88.48c5,2.53,8.83,1.7,13.31.83C348.07,95.79,344.83,95.83,341.3,88.48Z"
            transform="translate(-36.65 -66)"
        />
        <path
            class="cls-2"
            d="M271.12,108c1.47,3.15-1.64,7.61,3.85,9.06,1.59.42-.9,2.6-1.47,4-1.31,3.22-4,4.38-6.87,3.5-2.7-.82-5.3-1.1-7.57.11-7.62,4.07-9.71-2-12.65-6.56-1.18-1.85-.19-3.11,1.25-4.21,1.86-1.45,3.81-2.8,5.58-4.36,4.51-4,7.23-3.19,8.24,2.87.25,1.53-.2,3.83,2.07,4,2.61.16,2.61-2.07,2.81-4C266.6,109.94,268.32,108.79,271.12,108Z"
            transform="translate(-36.65 -66)"
        />
        <path
            class="cls-2"
            d="M230,121.87c1.61.33,3.73.67,5.79,1.23,2.9.78,5.65,2.33,5.54,5.59s-2.71,4.43-6,4.84c-6.62.82-10.45,6.09-15,10.15-1.55,1.38-2.94,3.5-5.45,1.94s-2.12-3.65-1.45-6.24C215.91,129.83,223,121.86,230,121.87Z"
            transform="translate(-36.65 -66)"
        />
        <path
            class="cls-2"
            d="M301.33,144.15c-3.37,6.31-11.7,5.08-15.77,10.35-.16.2-.91,0-1.35-.08-6.76-1.68-6.76-1.68-10.56,2.81-4-3.06-3.42-7.94-4.36-12-.63-2.66,9.74-8.58,12.53-7.28,5.06,2.35,1.11,4.31-.57,6.18-.91,1-2.64,1.68-1.5,3.36a4.23,4.23,0,0,0,2.73,1.89c1.47.05,2.35-1.33,3.06-2.62C289.94,138.81,293.67,138.2,301.33,144.15Z"
            transform="translate(-36.65 -66)"
        />
        <path
            class="cls-2"
            d="M311,126c-1.93,5.72,2.25,6.35,6.18,6.77,2.3.25,4.74-.63,7-.29s6.34.58,4.91,3.83c-.91,2.06-1.11,7.77-7.06,5.25-4.86-2.05-10.51-.56-15.67-3.39-4-2.21-5.51-3.77-3.43-8,1.69-3.42,2.66-6.83-1.1-10-1.19-1-2.5-3.42-.29-4.91,1.68-1.12,2.94.19,4.05,1.68C307.66,119.75,311.83,121.24,311,126Z"
            transform="translate(-36.65 -66)"
        />
        <path class="cls-2" d="M474.45,219.35c-.11,5.41-10,10.84-16,10.4-7.52-.56-7.87-6.8-10-11.29-1.35-2.84,3.52-5.45,4.33-4.6,5,5.21,9.74.59,14.4.16S473.29,216.18,474.45,219.35Z" transform="translate(-36.65 -66)" />
        <path
            class="cls-2"
            d="M295.43,118c-1.63,4.87-4.66,8.22-7.42,11.68-.73.9-3.55-.57-2.67-1.6,3.36-3.94-.22-4.82-2.21-6.71-1.45-1.37-1.26-5.06-.95-5,3.53.78,5.85-3.65,9.08-2.13C292.94,115,295.09,116,295.43,118Z"
            transform="translate(-36.65 -66)"
        />
        <path class="cls-2" d="M280.72,399.4c-4.28,2-6.73,4.12-10.58.06-4.92-5.19-11.69-7.41-19.26-6.65C255.55,387.35,257.2,387.71,280.72,399.4Z" transform="translate(-36.65 -66)" />
        <path
            class="cls-2"
            d="M347.73,269.94c-3.51-4.7-10.38-7.25-9.53-14.91a20.89,20.89,0,0,0,.24-4.85c-.54-4-.4-9.51-2.85-11.36-2.75-2.07-3.31,4.58-6.65,5.64-2.56.82-4.57,4.56-7.4,2.86-1.44-.87-2.6-5.33-1.73-6.37,5-5.95-1.36-9.35-3.07-13.18-2.16-4.79-8-4.76-12.69-4.17-4.54.57-3.32,6.16-2.9,7.5,1.75,5.62-4.76,7.63-4.51,10.6.37,4.29,1.67,8.25-.39,12.47-.52,1-.58,2.28-1.76,2.89-6.62,3.45-9.34,8.92-8.95,16.32.13,2.61-1,6-4,5.71-3.28-.31-3.26-4.14-3.74-6.8-.18-1,1.33-2.28,1.12-3.23-.7-3.26.64-8.06-2.77-9.47-11.22-4.65-16.77-8.93-21.38-18.35-.11-.21-.22-.43-.34-.63-5.48-9.42-1.35-18.57,9.64-20.83,5.78-1.18,5.58-3.64.95-7.71,8.37.78,14.26-1,16.84-8.54.67-1.95,2.25-1.69,3.75-1.49a13.44,13.44,0,0,1-3.19,7.62c-2.23,2.89.78,5.3,2,4.66,4.76-2.55,8.9.47,13.44,1-2.59-8-5.84-11.77-11.69-13.67,1.58-5,5.69-6.62,9.22-3.09,1.91,1.91,2,.83,3.54-.13,5-3.16,4.34-9.07,7.1-13.17,1.75-2.59,1.62-2.89-1.07-5-5.67-4.45-8.06-1.22-10,3.1a15.26,15.26,0,0,1-6,7.26,13.88,13.88,0,0,1,1.35-6.76c.65-1.3,1.05-2.14-.79-3.33-5.63-3.64-7.49-11.64-4.7-18.18.54-1.27,1.51-2.66.46-4s-2.6-.71-4-.34c-6.8,1.84-10.13,8.92-6.62,15,1.67,2.89,1.9,5.47,0,7.82-2.1,2.58-4.79,4.69-7.3,7.08-1.39-1.75-.69-3-.45-4.38.56-3.37-1.1-4.87-4.46-3.85-10.78,3.26-10.74,3.27-16.9-5.42-1.47-2.08-3.38-4.06-5.55-.83-1.95,2.89-3.5,6.06-5.84,10.2-1-6.46-3.35-9.51-9.48-9-2.08.17-8.39.2-4.71-6.11,1-1.77-1.08-3.75-2.67-4.58-5.75-3-9.83-9.09-17.14-9.23-2.59,0-3.34-1.45-2.18-3.81.64-1.3,1.37-2.82,0-3.9-1.66-1.34-3.05.06-4.41,1-1.67,1.15-3.15,3.59-5.5,2.15-4.28-2.62-10.06-3.5-13.15-.46-3.68,3.63-5.18,1.93-7.66-1.21-4.42-5.58-8.77-11.54-15.78-14.13a17.8,17.8,0,0,1-7.79-5.75c-3.57-4.35-10-6-11.54-12.38-.4-1.6-1.74-.37-2.84-.11-9.82,2.32-18.68,8.49-28.1,10.09-10.54,1.79-8.31,7.23-8.48,13.53-.07,2.58.78,4.55,1.63,6.72.71,1.81,1.26,3.54-1.22,4.77-2,1-4.54,1.2-5.06-.55-2.29-7.69-7.46-2.8-11-2.42-6.3.67-2.08,6.82-4,10.21-1.11,2,3,3.54,5.68,3.77a24.61,24.61,0,0,0,4.29.07c4.48-.42,4.39,1.84,2.53,4.6A9.58,9.58,0,0,1,80.18,171c-8.25,2.44-20,.73-17.48,16.05.81,4.95-1.2,5.28,3.9,5.94.06,3.78-6.59,9.07,2.66,10.91,1.5.3,5.3-1.32,5,3-.2,3.32-2.52,4.06-5,5.18-7.11,3.21-12.53,9.12-19.71,12.37,7.91.55,13.91-4.29,20.63-6.88a46.49,46.49,0,0,0,20.41-16.17c3.13-4.31,5-6.59,11-6-3,3.54-7.07,4.77-6.58,9.62,4.42-1.34,10.5.51,10.65-7.08,7.79,2.94,12.92,10.66,21.72,11.91,2.17.31,2.72,2.66,2.28,4.64-.79,3.46,1.18,5.63,2.81,8.34,4,6.69,8.48,13.44,9.55,21.29.63,4.63-.31,9.35.2,14.28.78,7.51,5.84,11.74,8.56,17.53,1.19,2.53,3.64,4.95,2.43,7.47-2,4.18-4.45-1.64-7.18-.5,1,5.86-1.83,10.67-4.18,15.45a42.13,42.13,0,0,0-3.52,23.59c1.28,9.6-1.61,23.06,12.87,27.08a1.57,1.57,0,0,1,.82,1.12c.89,6.31,3.4,12.15,5.16,18.21,2,6.89,5.88,12.4,10.65,17.49l1-.81c-1.55-6-3.59-11.63-7.2-16.84-3-4.38-2.5-5.24,1.08-9.67,5.75,9,10,18.64,14.35,28.18,1.71,3.73,6.63,4.89,6.69,9.52.05,5.36,3.37,8.31,7.79,10.37,1.93.9,4.33,1.12,5.91,2.41,8.74,7.14,20.47,6.44,30.27,11.93,6.93,3.88,13.93,7.25,18.32,13.51,2.57,3.66,6.2,2.67,8.56,4.75,4.3,3.8,6,.3,8.44-2.16.52-.52,1.83-.26,2.78-.35l.05-.06c-1.3-2.18-3.38-1.25-5.16-1.23-9.63.09-10.91-1.35-9.12-10.6,1.11-5.68.51-10.12-6.79-10.36-3.25-.11-6.49-.61-10.48-1,2.74-4.71,4.15-9.41,5.58-14.13,1.06-3.48-.56-4-3.19-4.68-7.3-1.83-7.16,5-9.08,8.47-1.59,2.84-2.77,3.6-5.78,3.56a14.78,14.78,0,0,1-13.84-20.12c.92-2.4,2.34-4.56,2.46-7.37.22-5.09,7.16-12.79,12-13.06,6.19-.35,11.79,1.4,18.67-1.41,8.68-3.55,14.4,2,16.69,11.65.17.69.39,1.37.61,2.05.47,1.47.12,3.8,2.56,3.5,2.12-.26,2.9-2.14,3.52-4.05.85-2.58-.92-4.58-1.34-6.86-2.15-11.56-2.2-11.72,7.7-18.19a62.57,62.57,0,0,0,6-3.81c2.38-2,4.62-4.33,4.72-7.69.28-9.13,6.77-17,15.49-18.59,1.83-.33,4.65-.07,4.51-2.45-.36-5.88,2.78-7.89,7.8-9,4.3-.94,4.24-1.19,8.35.93.39.2,1.09.35,1.36.15,2.06-1.56,4.37-2.95,6-4.91,2-2.43-1.66-2.73-2.25-4.33-.71-1.91-2.48-3.36-1.34-5.89.68-1.53,3.94-2.46,1.9-4.59-1.62-1.68-4.08-.49-6.15-.1-1.85.34-3.68.77-5.51,1.16,2.69-5,6.51-8.81,12.47-8.1,7.16.86,13.48,1.24,20.41-2.82S352.92,276.87,347.73,269.94ZM311,294.26l.71-.55a1.48,1.48,0,0,1-.25.52C311.42,294.31,311.2,294.25,311,294.26Z"
            transform="translate(-36.65 -66)"
        />
        <path
            class="cls-2"
            d="M267.52,94.59c2.93-2,7.63.62,8.49-4.65.18-1.11,3.15-.61,4.56,0,1.58.68,1.15,2.38.58,3.71-.72,1.69-1.15,3.86-2.45,4.88-2.14,1.68-4.55,3.92-7.51,3.35C266.8,101,270.1,96.46,267.52,94.59Z"
            transform="translate(-36.65 -66)"
        />
        <path class="cls-2" d="M280.65,405.86c3.32-1,1.76-5.88,5.87-5.39,3.35.41,7.21-.51,9.65,3,.59.85,1,2.19.14,2.36-3.34.68-6.55,2.42-10.1,1.66C284.63,407.18,283.1,406.6,280.65,405.86Z" transform="translate(-36.65 -66)" />
        <path
            class="cls-2"
            d="M308.92,98.73c-1.51-2.38-2.93-.26-4.39.1,0-4.39-1.63-7.93-5.62-10.2-1.62-.92-3.79-1.29-3.72,1.09.11,3.84-5.89,8.53,1.32,11.59.48.2.69,1.21.86,1.89.92,3.72,2.6,2.76,4.15.56,1-1.4,1.25-3.28,2.72-4.36a51.82,51.82,0,0,0,.86,5.56c.38,1.5,1.82,2,3.28,2.15a2.12,2.12,0,0,0,2.49-1.86C311.34,102.77,310.17,100.71,308.92,98.73Z"
            transform="translate(-36.65 -66)"
        />
        <path class="cls-2" d="M271.92,174.82c0,2-.74,3.83-2.76,3.11s-5.22-.6-5.22-3.46c0-2.1.83-5.16,3.78-5.12C271,169.39,271.26,172.5,271.92,174.82Z" transform="translate(-36.65 -66)" />
        <path class="cls-2" d="M295.52,127.09c2.1.21,2.83,1.58,2.82,3.39,0,2-.74,3.94-3.06,3.92a3.06,3.06,0,0,1-3.08-3.22C292.27,129.14,293.77,127.91,295.52,127.09Z" transform="translate(-36.65 -66)" />
        <path class="cls-2" d="M266,137.17c-.5,1.63-1.38,2.76-3,2.62a2.33,2.33,0,0,1-2.13-2.42c-.14-2,1.24-2.33,2.78-2.18C264.8,135.31,265.82,135.84,266,137.17Z" transform="translate(-36.65 -66)" />
        <path class="cls-3" d="M168.89,385c1.18.91,2.42,2.23.75,3.24-.88.54-1.23-1.5-1.74-2.44Z" transform="translate(-36.65 -66)" />
        <path
            class="cls-2"
            d="M244.41,100.2c-2,.62-6,.61-4.94,3.7s4.94,3.29,8.08,2.12a24.11,24.11,0,0,0,4.08-2.45c.17,1,0,2.36,1.88,1.71a12.64,12.64,0,0,0,8.11-8.08C254.71,92.71,249.9,98.48,244.41,100.2Z"
            transform="translate(-36.65 -66)"
        />
        <path
            class="cls-2"
            d="M482.46,100.19c-4-.43-7.47,1-11,2.33-1.07.4-3.54,1.81-3-.47,1.17-5.1-1.7-3.14-4.16-3.37A13.74,13.74,0,0,1,456,95.52c2.13-3,5-2,7.45-2.11,4-.11,4.41-1.22,3.46-5.28-1.94-8.24-8.19-5.25-13-6.11-.55-.09-1.08-.26-2-.5,1.83-1.64,4.27.21,5.67-2.2C449,72.5,441,77.22,433,80.55a8.13,8.13,0,0,1,1.15,9.2c-2.37-4.93-8.47-7.68-10.91-4.57-3.31,4.19,2.08,7.13,3.79,11.1-8.16-.1-4.06-8.5-8.32-10.77-2.61.69-2.14,3.4-3.26,5.08-.79,1.18-1.43,2.73-3.12,2.48s-2.25-1.83-1.9-3.28c1.38-5.66-3.17-4.59-6-5.44-3.94-1.17-4.4,1.13-4.34,4.22a2.67,2.67,0,0,1-2.68,2.83c-6.66-.23-11.42,4.1-16.85,6.77-1.36.66-2.88,1.14-2.74,3.54.34,6.13-2.63,9.18-9.06,9.13-7.34-.07-10.71,3.88-10,10.44.17,1.59,1,3.89-1.4,5s-1.43,2.28-1,4.42c1.29,5.76,3.51,9.11,10,8.22,2.55-.35,5.23.24,7.84.35,2.06.08,4,.62,4.37,2.87,1.5,9.71,2.31,19.55-1.12,28.94-1.44,3.93-1.16,5.21,3,5.34,1.47,0,3.81-.71,3.88,1.82.06,2.16-1.8,2.47-3.61,2.4-4.44-.16-4.3,4.06-5.36,6.44-1.4,3.12,2,3.19,4.09,4.24,2.94,1.46,3.15,4.83.5,6.21-6,3.16-6.55,7.52-5.37,13.54,1.49,7.6.86,15.49,4.26,22.9,2.6,5.68,9,5.38,12.54,9.36.82.91,1.94-1.54,2.79-2.61,3.71-4.66,5.14-10.44,7.2-15.8,2.26-5.87,7.86-8,11.67-12,1.28-1.34,5.4,3.78,8.47-2.18,1.21-2.37,6.2-4.92,8.1-9,.37-.78,2.64-1.09,4-.95,7.76.86,13.15-4.11,19.45-7-1.79-3.61-6.63-1.44-8.25-5.46a64,64,0,0,1,7,.06c1.84.23,4,1.54,5-.85s1.87-5-.36-7.35a44,44,0,0,1-2.91-3.84c8.6-.06.06-5.64,2.32-7.73,7.35,1.53,4.85-6.13,7.85-8.33,5.82-4.26-4.61-14.37,6.26-16.45a3.61,3.61,0,0,0,.05-2.62c-6.66-9.45,3.49-17.34,2.44-26.28-.16-1.4,1.62-1.44,2.8-1.26,6,.91,7.27-5,10.39-7.84C488.05,103.79,486.42,100.62,482.46,100.19Z"
            transform="translate(-36.65 -66)"
        />
    </g>
    <g id="Rosado_40_" data-name="Rosado 40%">
        <path
            class="cls-4"
            d="M265.93,436.61c4.33,1.37,7.75,2.08,9.41-4.14,1.33-5,8.61-1.64,11.08-6.65,1.24,3.32-2,6.1,1.14,9.3,1.81-10.08,6.29-7.23,12.27-3.72,3.07,1.79,7.82,3.73,11.95.62,1.87-1.4,3-.06,4.26,1.06,3.93,3.4,8.25,6.44,11.8,10.19,1.68,1.77,3.94,3,5.39,2.77,7.66-1.41,12.72,3.76,18.43,6.89,3.06,1.67,3,5.6,2.45,9-.38,2.25-3,3.89-1.88,6.58,6.45-1.9,11.87.62,16.87,4.16,2.62,1.86,5.24,3.5,8.46,2.82,9.05-1.9,15,4.95,22.33,7.82,1.34.53,3.05,3.88,2.56,4.66-3.41,5.47-.15,13.43-7.4,17.66-4.26,2.48-6.58,6.71-5.06,12.78,1.7,6.85-3.42,12.59-5.59,18.77-.82,2.32-3.81,2.31-6.3,2.38-6.79.18-16.24,8.77-16.18,15.66a17,17,0,0,1-6.56,14.23A10.65,10.65,0,0,0,352,574c-2.45,7.92-7.33,10.67-15.54,7.06,0,3.38,2.16,5.1,2.6,7.62,1.13,6.4-.66,9.61-7.19,9.44-4.29-.11-6.83.82-6.91,5.48,0,.47-.34,1-.18,1.4,1.73,3.78-13.63,1.08-3.08,8.13-4.76,2.33-2.8,8.29-6.39,11.58-2.45,2.25-1,5.46,1.88,7.09s3.44,3.18,1.82,6.26c-7.8,14.84-6.65,18.82,7.19,27.08.37.22.54.75.8,1.14-7.74,6.57-7.89,6.69-14.5-1.28-1.51-1.82-3.64-1.47-5.3-2.57-11.88-7.8-8.84-21.67-14.29-31.87-.85-1.61.92-2.28,1.58-3.42,3-5.11,3.24-10.31-.45-15.36-2.4-3.29-2.28-7-2.8-11-1.63-12.4,2.53-24.12,2.58-36.3,0-8.55-1.94-17.2-1-25.19,1.3-10.86-2.16-16.63-10.42-22.64a48.2,48.2,0,0,1-14.29-15.47c-2.95-5.34-4.09-12-9.63-15.9-1-.69-1.37-3.34-.9-4.68,2.62-7.47.39-16.35,7.68-22.59,4.93-4.22,5.57-10.16,1.47-15.86-1.25-1.73-.51-3.7-.87-5.53Z"
            transform="translate(-36.65 -66)"
        />
    </g>
    <g id="Rosado_100_" data-name="Rosado 100%">
        <path
            class="cls-5"
            d="M696.39,88.32c-3.34,1.92-.65,5.27-3.11,5.49-2.87.25-2.77-2-2.45-4.39.14-1-3-.41-2.82-2.46.23-3.45-1.62-8.21,1.86-9.82,2.16-1,6,2.38,7.16,5.31,1.13,2.73,2.59,4.1,5.3,3.9,6.46-.48,6.9,5.31,9.06,8.92,1.58,2.65-.9,3.86-3.3,3.46C702.26,97.76,695.35,97.94,696.39,88.32Z"
            transform="translate(-36.65 -66)"
        />
        <path
            class="cls-5"
            d="M823.23,94.11c2-1.28-1-5.59,3.34-5,1.76.23,3.64.12,4.51,2.64,1.09,3.18-.3,4.89-2.58,6.43-1.36.92-3.26,1.41-4.11,2.65-2.21,3.25-5,3.78-7.8,1.61-3.19-2.49-5.54-5.9-5.55-10.21,0-1.36,1.2-3.06,2.88-2.08,2.4,1.38,3.81,3.87,6.1-.84C820.81,87.67,822.31,92.25,823.23,94.11Z"
            transform="translate(-36.65 -66)"
        />
        <path class="cls-5" d="M715.23,89.4A26.61,26.61,0,0,0,719,91.9c2.7,1.1,6.89.17,7.63,3.93.84,4.26-3.85,5.38-6,7.94s-3.35.8-3.72-1.3C716.17,98.57,715.85,94.59,715.23,89.4Z" transform="translate(-36.65 -66)" />
        <path class="cls-5" d="M762.64,441.59a1.61,1.61,0,0,1-.1-1c.37-2.26,0-5,2.28-4.8,3.14.3,3.6,3.87,4,6.63.27,1.92,0,4.11-2.53,4.09C762.73,446.47,763.53,443.29,762.64,441.59Z" transform="translate(-36.65 -66)" />
        <path class="cls-5" d="M728.22,119.23l.13,0s0,0,0-.08Z" transform="translate(-36.65 -66)" />
        <path
            class="cls-5"
            d="M991.53,128.23c-1.06-1.27-3.76-3.6-2.24-6.75,2.46-5.1-.79-7.26-5-8.8-5.71-2.09-6,2.62-6.8,4.4-16.37-5.29-32.5-8.51-49.4-4.86-.77,4.53,4.91,6.36,4.29,12.32-3.25-3.36-7.4-2.78-9.3-6.45-.51-1-1.92-2.28-2.49-.44-2,6.45-11.69,1.65-12.82,9-2.74-1.84-6.89.8-9.09-3-3.62-6.17-7.09-6.8-14.13-4.11-2.79,1.06-5,7.31-9.23,1.78-2.35-3.07-7.28.63-9.86-4.34-1.76-3.4-7-5.07-9.68.86-.43,1-1.15,2.14-1.69,1.3-3.26-5.1-7.11.18-10.76-.66-2.91-.67-4.57,3.18-2.24,5.08,6,5,1.2,5.36-2.24,6.63l.62,1.47-1.7-.27C833,130.2,830.4,135,826.15,136c-3.23.78-2.8,3.29-6,.91-2-1.51-4.33-2.29-5.39-5.73a10.88,10.88,0,0,0-9.08-7c-3-.19-7.47-1.53-8.57,2.94-1.64,6.7-7.29,6.51-10.32,4.19-4.27-3.27-8.09-2-11.06-.42a9.08,9.08,0,0,1-7.16,1c-2.89-.7-6.55-2.52-4.7,3.62.65,2.18-1.34,4.25-4,3.55-2.93-.77-.71-2.39-.3-3.8,1.14-3.87,2.1-7.79,3.07-11.7,1.71-6.89-8-18.16-14.59-16.14-3.48,1.07-5.74,3.2-9.8.82-1.33-.78-2.52-.8-3.28-2.63-1.23-3-3.45-2.23-5-.3-2.3,2.93-3.36,6.21-1,9.73,1.08,1.59,2.25,3.28-.69,4.13,1.28,3.26-1.1,4.25-3.3,3.92-7.75-1.17-11.28,4.69-15.57,9-6.24,6.29-6.13,8.26-.47,14.77a8.08,8.08,0,0,0-2,.3c-1.7.71-3.33,1.6-5,2.3-5.34,2.2-6,5.13-1.94,9.18a11.77,11.77,0,0,0,4.76,2.95c3.46,1,4.91,3.33,5.58,6.51,2.5,1,3,3.14,3.18,5.55-5.28-1.9-5.28-1.9-5.41-5.42-1.92-4.93-6.83-5.58-10.75-5.89-4.85-.37-11.12,2.56-11.07,7s3.65,9.26,5.13,14.18c.65,2.14,2.72.48,4.15.62,4.25.4,9.07.8,9.12,8.61-1.61-1.88-2.27-2.51-2.77-3.25-1.19-1.81-2.34-4-5-2.85-2.79,1.24-.55,3.23-.24,4.85.67,3.66-.38,7-1.5,10.42-.48,1.48-1.51,1.66-2.74,1.48-1.46-.22-.9-1-.63-2,1.8-6.17-.32-11.15-3.46-16.68-3.37-5.92-6.31-12.53-7-19.58-.4-3.92-3-4.22-5.91-4.74-2.68-.49-3.34,1-3.49,3.14-.61,9.09-3.82,18.91,7.19,24.65,2.16,1.13,2,3,1.09,4.92,1,2.21,1.7,4.31,0,6.64-2,2.64-5.47,5.42-.32,8.51.94.57.31,1.75-.12,2.59-3.77,7.31-3.43,15.31-3.84,23.17-.15,3-2.25,3-4.26,3.71-3.65,1.24-7.66,2.66-1.84,6.61,1.48,1,1.34,2.43,1.18,3.81-.47,4.13-3,7.59-3.66,11.8-.36,2.35-3.69,3.29-6.58,1.91-4.92-2.35-5.13.19-3.46,3.72,2.62,5.53-2.58,9.6-2.4,14.44.17,4.47-6,8.36-.81,13.27,2.33,2.22.76,3.73-2.09,3.95-1.19.09-2.36.29-3.54.42-2.15.24-4.74.36-5.33,2.72s2.22,2.59,3.68,3.56c4.4,3,5.85,11.19,1.65,15.31-4.4,4.33-9.12,9.57-16.72,6.84-5.58.19-10.85.63-16.45-2.08-6.36-3.08-12.53,2-18.52,3.92a24.58,24.58,0,0,1-6.32,1.56l-2,1.08c2,13.11,3.07,13.34,15.34,13.83,4.27.18,8.2,1.19,12.46-.47,1.74-.68,1.75,1.66,2,3,1.23,6.08-1.8,10.91-4.65,15.79,2.63,2.25,3.24,5.3,3.46,8.52,3,10.09,14.59,15.52,14.68,27.17a1.7,1.7,0,0,0,.74,1.19c8.61,4.75,10.7,13.7,13.77,21.86,1.37,3.66,3,4.9,6.16,2.64,7.65-5.56,17.86-4.21,25.6-10.94,5.64-4.9,13-7.41,16.75-15,2.24-4.55,1.75-6.68-2.2-9.23-2-1.3-4.8-1.47-5.9-4.55-1.23-3.44-2.65-8.27-6.29-.64-2.73,5.69-7,4.95-9.57-1-.76-1.77-1.35-1.4-2.48-.78s-3.08,1.51-2.78-1c.47-3.85-2.85-5.25-4.41-7.72-1.32-2.09-3.36-4.42-1.07-6.13,2.76-2.06,4.36.35,5.75,3,2.57,4.9,7.31,7.81,12.49,7.42,4.18-.32,6.64,0,10.43,2.53,3.47,2.32,8.94,4.32,14.65,2.46,9.42-3.07,16.34,3,23.23,8.23.68.51.71,1,.87,1.84,1.1,6,4.21,6.71,9.72,1.75,1.06,15.3,8.17,28.15,13.67,41.53.95,2.31,2.63,4.49,6,2,4.52-3.28,7.52-6.93,6.47-12.88-1-5.58.87-9.61,4.77-14.18,4.88-5.74,12.27-8.62,16-15.85,1.23-2.39,9.48-5.85,11.23-2.73,4.06,7.26,12,12.48,11.7,21.84,3.81.08,5.49-2.54,7.93-4.34,3.32,6.32,7.57,12.49,6.46,19.69-1,6.36.07,11,5.61,14.29h0q2.07,7.15,4.13,14.32c2.54,0,3.75,2.55,6,3.18s3.47,0,2.53-2.35c-2.54-6.33-3.12-14-11-16.81-.86-6.37-8-12-1.94-19.14,3.68,2.06,7.72,3.9,10.93,7.57,2.08,2.38,5.49,5.31,9.19,3.71a13.37,13.37,0,0,0,2.75-22.85c-2.76-2.15-4.32-4.94-6.45-7.39-2.54-2.92.17-5.5,1.86-7.32,1.52-1.63,4.27-4.9,6.51-2.14,2.82,3.47,3.82,2.69,6.68.14a21.77,21.77,0,0,1,6.58-3.78c20.51-7.51,27.46-26.39,16.06-43.91-5.46-8.41-5.46-8.4,1.8-14.92.23-.2,0-.88,0-1.73-2.47.37-4.88-.83-7.29.74-2.72,1.77-3.81-.08-5.51-2.12-3.73-4.48,1-6.72,2.17-9.77.55-1.47,2-4.16,4-3.38,4.13,1.59-.22,5,1,7.45.2.39.42.78.8,1.45,1.19-.78,2.41-1.46,3.5-2.3,4.57-3.53,8.29-4.82,8.53,3.16.06,1.83,1,2.45,2.63,2.63,3,.32,2.75,2.6,3.55,4.86,1,2.85-.17,6.12,1.83,8.64,8.84-3.39,9.72-6.16,4.49-14-1.44-2.16-2.81-4.44-5.24-5.74-1.49-.79-2.23-2.48-1.11-3.52,3.24-3,3.73-6.68,4.42-10.75.36-2.13,2.21-5.64,6.53-4.38,3,.89,4.95-1.93,5.87-4.18,4.88-12,11-23.79,5.81-37.41-.59-1.55-1.77-3.58.22-5.59,3,.79,3.34,3.61,4.14,6,2.09,6,4.59,12,5.84,18.25,1,4.84,2.71,4.14,6.13,1.9-3.85-3.2-8.22-8.88-5.84-11.83,3.62-4.47.08-5.85-1-8.37-1.93-4.51-6.11-7.81-6.6-13.22-.27-3-2.6-5.28-5.38-7.33.09,3.36-1,8.39-3.44,5.62-4.26-4.81-8.94-1.89-12.93-2.6-4.85-.87-5.53-3.5-4.93-6.12,1.65-7.29,4.59-14.29,6.34-21.57,1-4.23,3.79-5.87,7.24-6.71,4.05-1,8.09-1.11,11.35-4.7,1.64-1.8,5.76-2,7.12,1.24,1.24,2.9,2.53,1.74,3.54.64,1.3-1.43,5.49-1.94,3.79-4-3.75-4.57.71-8.75-.51-13-.76-2.65.82-4,3.17-4.65,2.09-.6,4.34-1.29,5.78,1,3.75,5.87,4.19,1.9,5.67-1.51,1.17-2.69-.14-4.43-.87-6.58-.49-1.42-.32-2.94,1.38-3.55a3.31,3.31,0,0,1,1.81.43c-.83,4.77,4,8.39,2.26,13.57-2.87,8.36-3.12,17.33-4.93,26-3.31,15.85,10.67,24.83,16.37,39,1.68-3.9,3.74-6.37,3.16-7.71-3.69-8.6,6.55-17.35-.47-25.71-.13-.15-.16-.6,0-.68,5.92-4.32-2.21-6.65-1.46-10.22-7.3-.37-4.92-6.28-5.78-10.25-1.11-5.12,7-14.5,11.6-12.61,6.32,2.61,5.23-1.24,5.88-4.69,1.31-6.93,1.34-14.66,11-16.33,4-.7,1.1-3.8.14-4.7-4.78-4.51-9.53-9.19-15.82-11.33,12.28-3.73,2-10.53,1.58-15.33a26.49,26.49,0,0,1,14.33-.79C992.83,134.53,995.94,133.53,991.53,128.23Z"
            transform="translate(-36.65 -66)"
        />
        <path
            class="cls-5"
            d="M883.43,446.15c-2-2.06-3.2-1.83-5.15.26-3.18,3.42-6.45,7.14-10.45,9.28-2.81,1.5-3.63,5.74-7.75,5.14-4.6-.67-4.29,2-3.46,5.24,2.31,9.07,7.59,13.56,17.21,14.34,2.49-.21,3.71-1.63,4.19-4.05A27.76,27.76,0,0,1,884,464.58c1.24-1.55,1-1.89.06-3.28-2.34-3.37-2.86-7,.4-10.17C886.85,448.77,884.89,447.7,883.43,446.15Z"
            transform="translate(-36.65 -66)"
        />
        <path
            class="cls-5"
            d="M937.52,310.91c-.59-.94-.6-2.61-2.24-2.18a3.19,3.19,0,0,0-2.38,3.16,20.92,20.92,0,0,0,.31,4.26c.86,4.63,1.25,11-3.28,11.81-5.25,1-3.22,7.31-9.14,7.72-7.79.55-12.13,10.1-9.56,16.86.55,1.45,1.09,2.76,2.76,2.78,2.27,0,1.81-2,1.66-3.12-.44-3.37,1.94-4.38,4.15-5.8,3.66-2.35,8.42-5.75,11.23-6.14,11.89-1.68,9.16-9.28,8.64-16.58C941.21,319.15,940.08,314.92,937.52,310.91Z"
            transform="translate(-36.65 -66)"
        />
        <path class="cls-5" d="M831.24,458.21l.1,0-.13-.13Z" transform="translate(-36.65 -66)" />
        <path class="cls-5" d="M845.66,485.28l-.12,0v.13Z" transform="translate(-36.65 -66)" />
        <path
            class="cls-5"
            d="M814.31,452.46c8.28,5.53,12.08,14.54,16.51,22.72,3.48,6.42,7.94,9.48,14.72,10.08a22.38,22.38,0,0,0-5.78-16.71c-2.88-3.29-7.26-5.66-8.52-10.34-6.61-2.21-10.65-9.48-18.31-9.89C812.4,450.41,813,451.59,814.31,452.46Z"
            transform="translate(-36.65 -66)"
        />
        <path
            class="cls-5"
            d="M895.71,463.14c-2.61-1.44-5.26.13-6.72,3.18-2.41,5-2.39,10.17-1.32,15.46.25,1.23.56,2.37,2.05,2.31,1.23,0,1.23-1.18,1.44-2.09.27-1.25-.42-2.89,1.54-3.63,2.39,1.08,2.3,5.92,6.3,4.73,1.31-2.78-.67-4.58-1.52-6.69-.49-1.2-1.73-2.55-.11-3.76,1.27-1,4.67-.41,3.34-3.09s-3.71,0-5.61.23c-1.67.16-3.41,1-3.9-1.44s1.33-2.9,3-3.08a36.94,36.94,0,0,1,7-.19c2.36.19,4.18,0,5-4.45C902.41,463.61,899.69,465.34,895.71,463.14Z"
            transform="translate(-36.65 -66)"
        />
        <path
            class="cls-5"
            d="M929.49,287.8c2.57,5.51,3.52,9.35.46,13.25a3.44,3.44,0,0,0,1.4,5.38c3.14,1.3,2.57-1,2.46-2.9-.09-1.69,1.08-1.59,2.4-1.39,5.47.84,9.32-3,9.34-9.28C940,294,940,294,929.49,287.8Z"
            transform="translate(-36.65 -66)"
        />
        <path class="cls-5" d="M845.66,485.28l-.12.11.11,0A.57.57,0,0,0,845.66,485.28Z" transform="translate(-36.65 -66)" />
        <path class="cls-5" d="M849.16,491c6.29,1,12.5,2.49,18.78,3.58,1.41.24,3.65,1.71,4.31-.49.71-2.41-1.21-3.92-3.51-4.36-7.68-1.48-15.39-2.85-23.09-4.27C845.53,488,845.56,490.36,849.16,491Z" transform="translate(-36.65 -66)" />
        <path
            class="cls-5"
            d="M893,404.1c-1.41-.8-3.06-.1-4,1.79-3.23,6.39,0,14.19,7.06,15.46,1.93.35,3,1.72,5.31,2-.19-1.46,0-2.6-.41-2.78-4.48-2.28-10-3.74-4.84-10.73C896.84,408.85,895,405.29,893,404.1Z"
            transform="translate(-36.65 -66)"
        />
        <path class="cls-5" d="M831.34,458.24l0-.12h-.09Z" transform="translate(-36.65 -66)" />
        <path class="cls-5" d="M907.2,434c-1.3,5.09-7.11,3.1-9.67,6.59,1.7,2,5.84-.85,5.93,3.56,0,1.59,1.1,3.76,3.19,2.53,1.83-1.07,4.68-2.11,4-5.17C910.05,439.06,909.62,436.46,907.2,434Z" transform="translate(-36.65 -66)" />
        <path class="cls-5" d="M888.38,392.46c1.82-5.12,2.5-9.11,1-14.12C884.57,383,885.53,387.07,888.38,392.46Z" transform="translate(-36.65 -66)" />
        <path class="cls-5" d="M842.87,111.12c-3.58,2.19-6.52,3.57-9.56,1-1-.82-.3-2.16.75-3C837.31,106.44,839.62,108.5,842.87,111.12Z" transform="translate(-36.65 -66)" />
        <path class="cls-5" d="M835.24,89.62c2.63.12,4.68.2,6.73.34,1.27.08,3.4-2.18,3.58,1,.12,2.09-1.66,2.42-3.44,2.49C839.42,93.54,837.09,93,835.24,89.62Z" transform="translate(-36.65 -66)" />
        <path class="cls-5" d="M728.33,119.11l-.52-.08.41.2Z" transform="translate(-36.65 -66)" />
    </g>
    <g id="Rosado_80_" data-name="Rosado 80%">
        <path
            class="cls-6"
            d="M613.69,362.77c2.63,2.25,3.24,5.3,3.46,8.52-4.24,6-.08,10.15,2.67,15.12,5.93,10.69,10.47,22.16,18.1,31.88,2.72,3.47,5.36,7.11,8.63,10,8.66,7.64,17,2.56,26.76-2.26-2.91,8.41-3.8,15.46-8.28,22.43-6.56,10.21-18.06,14.37-24.93,24.07-5.09,7.2-7.88,15.41-3.89,23.84s1.17,17.26-6.39,23.28c-4.81,3.82-11.73,7-9,15.82.65,2.12-1.08,6.29-3,7.64-6.69,4.64-8.52,12.09-11.89,18.58-6.11,11.79-16,16.62-28.73,16.89-2.12,0-4.13-.18-6.28.69-5,2-8.09-1.23-7.33-5.31,1.13-6-2.61-9.93-4.59-14.38-1.55-3.5-3.35-7-3.63-10.61-.66-8.56-3.64-15.91-8.18-23.17-3-4.84-1.36-11.35,1.13-15.86,6.68-12.09,3.23-22.8-4.39-31.84-5.29-6.27-5.71-11.8-3.74-18.71,1.65-5.76-.78-8.79-6.71-7.73-3.52.63-4.89.13-6.2-3.48s-5.22-5.63-8.77-3.08c-9.19,6.59-20.4,2.43-30.07,6.22-2,.79-4-1.14-5.86-2.2-9.53-5.58-14.82-15.45-22.57-22.86-3.06-2.93-4-9.15-.75-14.37,1.17-1.9,3.24-4.41,1.54-7.28-5.74-9.68,1.79-16.05,5.85-23.28a3.86,3.86,0,0,1,.47-.54c5.72-6.84,14.88-10.71,16.18-21.51.51-4.24,8.64-4.81,9.74-10.52.05-.23.84-.52,1.23-.45,15,2.61,28.76-5.65,43.6-5.31,6.33.15,5.42,5,4.32,7.16-2.28,4.44,1.11,6.56,3.05,6.59,7.93.1,12.78,6.41,19.54,8.77,4,1.4,6.33,1.11,6.62-2.9.39-5.27,4.55-5.66,7-4.33C589.65,364.53,601.76,362.57,613.69,362.77Z"
            transform="translate(-36.65 -66)"
        />
        <path
            class="cls-6"
            d="M665.23,503.68c2,5.18,3.37,9,1.12,14.08-3.35,7.55-5.59,15.62-8.1,23.54-1.69,5.35-4.7,8.18-10.44,6-3.26-1.25-5-9-3.08-12.83a6,6,0,0,0,.65-2c.4-10.75,7.7-16.68,16-22.12C663,509.23,663.64,506.51,665.23,503.68Z"
            transform="translate(-36.65 -66)"
        />
    </g>
    <g id="Rosado_60_" data-name="Rosado 60%">
        <path class="cls-7" d="M547.85,122c1.1,6.61.26,18.82-2,26.74-2.92-3.51-5.65-6.09-6.58-11-.84-4.49-6.07-7.57-7.59-12.69-1.33-4.52,0-4.75,4-5.36,4.65-.71,8.13,1.78,12.19,2.44Z" transform="translate(-36.65 -66)" />
        <path
            class="cls-7"
            d="M547.92,122.07c1.31-1.5,0-2.33-.64-3.59-1.42-2.61-1.49-4.79,2.66-3.59,1.66.48,3.08-.35,4.64-.69a6.38,6.38,0,0,1,6.81,2.84,3.73,3.73,0,0,1,.11,4.64c-1.64,2.23-3.52,2.47-6.53,2.39s-4.42-2.93-7.12-2.08Z"
            transform="translate(-36.65 -66)"
        />
        <path class="cls-7" d="M615.16,104.92c1-.15,3.11-.51,1.74-1.65-6.57-5.47-2.51-7.68,2.62-9.78l-.07-.07c1,2.71,4.46,5.31.35,8.27a1.71,1.71,0,0,0-.31,1.34c.58,4,.6,4-6.43,5.09l2.16-3.26Z" transform="translate(-36.65 -66)" />
        <path
            class="cls-7"
            d="M605.64,101.83c1.17-.29,2.89.31,2.29,1.4-1.5,2.73-.16,6.92-4,8.34-1.71.63-2.37-.85-2.93-2.27-.4-1,2.08-7-2.57-1.64-.24.28-1.93-.19-2.46-.76-1.15-1.25.25-1.94,1-2.82C599.26,101.18,603,103.85,605.64,101.83Z"
            transform="translate(-36.65 -66)"
        />
        <path class="cls-7" d="M553.67,135.82c1.16-.79-1.73-2.92,1.4-3,2.92-.12,3.63,1.92,4.33,3.77s-.31,3.17-2.27,3.68c-1.36.35-2.89,1.07-3.41-1A14,14,0,0,1,553.67,135.82Z" transform="translate(-36.65 -66)" />
        <path class="cls-7" d="M536.78,325.64c1.43,3.33,2.79,6.38.32,9.31a1.33,1.33,0,0,1-2.26-.49C533.49,331.15,534.17,328.21,536.78,325.64Z" transform="translate(-36.65 -66)" />
        <path class="cls-7" d="M624.7,95.82c3.91.88,4.35,3.47,4,6.25-.05.46-1.75,1.28-2.15,1C623.58,101.34,626.11,98.14,624.7,95.82Z" transform="translate(-36.65 -66)" />
        <path class="cls-7" d="M546.86,339.9c3.8-.25,6.31-1.9,8.31.69a2.66,2.66,0,0,1-.47,2.54C551.9,344.45,549.94,342.86,546.86,339.9Z" transform="translate(-36.65 -66)" />
        <path
            class="cls-7"
            d="M679.93,208.34c-5.15-3.09-1.68-5.87.32-8.51,1.75-2.33,1.07-4.43,0-6.65-5.27-3.92-10.6-7.75-17.48-8.15-2.55-.15-5.25.77-7.26-1.72-.73-.9-1.88-1.82-2.93-.51-.88,1.09-.29,2.31.74,3,2.22,1.57,4.63,4.32,2.43,6-3,2.31-7.4,2.87-11.19,4.17-1.35-5-3.8-1.33-5.55-.52-3.4,1.57-5.18,5.26-8.77,6.87-1.38.62-.52,4.79-3.8,3.76-2.93-.92-.42-3.18-.64-4.81-.42-3.2-2.77-4.73-5.48-4.32-4.25.66-.1,3.2-.62,4.88-.78,2.52,1.11,4.46,1.9,6.65.61,1.67,1.4,4.11-2.26,3.14-4.82-1.28-6.53,2.35-6.58,5.65-.06,4.31-1.23,4.67-4.41,2.67-1.3-.83-2.63-3.24-4-1.43-1.84,2.36,1.29,2.83,2.49,4,.73.7,2.34.57,2.16,2.07-11.27,3.4-10-6.7-13.52-12,3.91-1.51,7.19,1.07,10.83.59s5.81-2.33,6.83-5.27c.89-2.59-1.48-4.69-3.38-5.57-5.61-2.6-9.76-8.15-17.14-7.52-2.48.21-7.58-1.58-7.84-4.3-.48-4.82-2.62-4-5.51-3.28-.87.22-2,2.54-2.5.57-1.63-6.24-3.07.48-4.51-.05-1.68-5.3-3.77-1.88-5.65-.12-1.32,1.23-.82,4.4-3.84,3.8-6.35-1.24-8.91,3.79-12.48,7.15a1.79,1.79,0,0,1-1.77.38c-.77-.27-1.52-.42-1.79,1.12-.17,1,.35,2,1.28,2a3.42,3.42,0,0,0,.59,0l.18,0a.82.82,0,0,1,1,.36,7.26,7.26,0,0,1,.54.88c.09.42-.44.6-.75.87-4.57,4.08-6.54,9.28-8.34,15-1.46,4.6-4.4,9.84-8.62,11.57-10.13,4.17-9.87,11.67-8.69,20.15.38,2.72,1.06,5,3.76,6.39,3,1.57,4.27-.81,5.92-2.39,3.72-3.6,5.91-2.87,6.76,2.27.65,4,4.81,6.53,4.52,11-.06,1,1.1,1.38,2.14,1.31,4.16-.27,9-5.87,8.67-10.37-.15-2-.07-4.25,1.32-5.31,3.54-2.69,2.08-5.73.37-7.93-4.08-5.26-2.35-9.57,1.12-14,2.7-3.45,6.73-6,7.19-11,.15-1.6.87-3.26,3-3.34,1.79-.06,3.69.32,4,2.15s1,3.77-.4,5.33a20.1,20.1,0,0,1-3.81,3.19c-6.19,4.1-3.93,9.8-2,14.6s6.35,4.37,11,3c3-.87,8.46-3.89,9.26-.08,1.07,5.13-4.72,2.79-7.75,3.67-3.41,1-11.06,1.25-3.6,7.93,1.49,1.33.06,3.19-2.22,2.33-3.46-1.32-4.11,1-5.19,3.05-2.29,4.37,2.1,6.16,4.24,9.17-7.68,1.84-15-.19-22.17,3.72-6.28,3.4-11.34-2-11.74-10.32-.06-1.31-.88-2.59-1.36-3.88-1.4.72-3.08.81-3.64,2.92-.36,1.35-1.09,2.45-.71,4,1.45,5.94.94,10.62-6.93,10.76a4.71,4.71,0,0,0-4.12,3.58c-1,3.55-3.62,5.18-6.4,6.83-1.93-2.75,2-6.57-1.11-8.36-5.05-2.93-6.18-8.57-10-12.2-1.61-1.55-2.48-3-.73-4.75,4.14-4.26-4.18-4.05-2.84-7.68.2-.54-3-.79-4.78.42-2.62,1.81-3.16,3.44-2.35,6.85.69,2.93,3.08,5.62,2.25,8.91-4.35-3.24-8.07-1.18-11.32,1.9-3.1,2.94-.24,7-1.33,10.55-.41,1.34,1.46,1.6,3.57,1,6.88-2,7.73-7.64,9.17-13.09,3.65,1,8.52,1.39,2.95,6.81-1.38,1.34.38,3.82-1.51,5.14,5.12,3.78-1.24,5.65-1.7,9.21a63,63,0,0,1,19.39-4.1c-2.1,5.92-9.11,4.2-12.89,7.68-.88.82-4-.81-4.5,1.69s2.31,2.3,3.63,3.36c3.8,3.07,7.21,6.34,5.36,12.45s-5.82,3.44-9.17,3.05c-10.9-1.27-10.35-1.23-13.35,10.44-1.87,7.25-2.29,12.06,6,15.53,8.62,3.62,18.88-.55,21-9.86.68-3.06,1.63-5.91,5.09-7.09,1.89-.65,2.85-2.12,3.32-4.23.61-2.75,16.54-8.2,18.81-6.54a30.07,30.07,0,0,1,3.43,3.6c2.44,2.54,4.51,5.46,7.85,7,5.05,2.37,8.82,5.7,7.73,12.82,5.75-6.48,6-10.63.79-14.19-4.08-2.79-7.41-6.25-10.88-9.62-1.24-1.2-2.59-2.72-1.43-4.31,1.75-2.38,3.29-.2,4.7.84,5.1,3.73,12.18,6.51,14.7,11.55,3,5.91,6.93,11.22,9.55,17.2,1.78,4.07,2.07,3.05,4.94.75,4.76-3.82-1.9-6.59-.09-9.75,3.17.18,4.68-8.64,9.11-1.68l2-1.08c1.59-1.72,6-1.9,2.28-6.25-2.21-2.62,5.19-16.9,8.75-17.78,3-.74,4,1.56,4.78,3.94.57,1.81,1.31,4.17,3.56,3.65,1.81-.42,2.69-1.7,2.38-4.66-.5-4.87,5.37-3.56,7.63-5.87,2.34,1.54.77,2.92.38,4-1.32,3.52-1,5.37,2.8,7.74,4,2.48,12.05,3.48,8.73,11.86,7.6,2.73,12.32-2.51,16.72-6.84,4.2-4.12,2.75-12.35-1.65-15.31-1.46-1-4.28-1.14-3.68-3.56s3.18-2.48,5.33-2.72c1.18-.13,2.35-.33,3.54-.42,2.85-.22,4.42-1.73,2.09-3.95-5.17-4.91,1-8.8.81-13.27-.18-4.84,5-8.91,2.4-14.44-1.67-3.53-1.46-6.07,3.46-3.72,2.89,1.38,6.22.44,6.58-1.91.66-4.21,3.19-7.67,3.66-11.8.16-1.38.3-2.81-1.18-3.81-5.82-3.95-1.81-5.37,1.84-6.61,2-.68,4.11-.69,4.26-3.71.41-7.86.07-15.86,3.84-23.17C680.24,210.09,680.87,208.91,679.93,208.34Z"
            transform="translate(-36.65 -66)"
        />
        <path
            class="cls-7"
            d="M647.7,182.53c-6.68,2.05-10.39-3.89-15.22-6-3.5-1.56,1.31-6.22.55-10.14-.9-4.64.49-10.14,1.37-14.69,1-5,4.2-11.56,10.77-13.62,3.33-1,6.12-2.52,7.7-5.76,1.35-2.77,3.54-3.29,5.75-1.44,2.87,2.4,1.11,4.68-1,6.51-4,3.52-8.6,6.06-11.21,11.34C641,159.64,639,170,647.53,180.32,647.88,180.75,647.65,181.65,647.7,182.53Z"
            transform="translate(-36.65 -66)"
        />
    </g>
    <g id="Rectangulo_degrade" data-name="Rectangulo degrade"><rect class="cls-8" x="109.06" y="678.42" width="20.13" height="164.96" transform="translate(-678.42 814.02) rotate(-90)" /></g>
    <g id="Gotas_celestes" data-name="Gotas celestes">
        <path class="cls-9" d="M946.77,762.93a12.78,12.78,0,1,1-25.56,0c0-7.06,12.78-26.76,12.78-26.76S946.77,755.87,946.77,762.93Z" transform="translate(-36.65 -66)" />
        <path class="cls-9" d="M303.44,235.92a67.06,67.06,0,0,1-134.11,0c0-37,67-140.39,67-140.39S303.44,198.89,303.44,235.92Z" transform="translate(-36.65 -66)" />
        <path class="cls-9" d="M636.4,269.54a19,19,0,0,1-38,0c0-10.49,19-39.77,19-39.77S636.4,259.05,636.4,269.54Z" transform="translate(-36.65 -66)" />
        <path class="cls-9" d="M605.78,446.71a23.26,23.26,0,1,1-46.52,0c0-12.84,23.26-48.69,23.26-48.69S605.78,433.87,605.78,446.71Z" transform="translate(-36.65 -66)" />
        <path class="cls-9" d="M372.65,500.76a37.21,37.21,0,1,1-74.42,0c0-20.56,37.21-77.92,37.21-77.92S372.65,480.2,372.65,500.76Z" transform="translate(-36.65 -66)" />
        <path class="cls-9" d="M946.32,556a17.14,17.14,0,0,1-34.27,0c0-9.46,17.14-35.87,17.14-35.87S946.32,546.57,946.32,556Z" transform="translate(-36.65 -66)" />
        <path class="cls-9" d="M861.6,301.13a76.76,76.76,0,0,1-153.52,0c0-42.39,76.76-160.71,76.76-160.71S861.6,258.74,861.6,301.13Z" transform="translate(-36.65 -66)" />
    </g>
    <g id="Texto_azul" data-name="Texto azul">
        <text class="cls-10" transform="translate(0 675.05)">
            P
            <tspan class="cls-11" x="8.42" y="0">oblación Mundial</tspan>
        </text>
        <text class="cls-12" transform="translate(0.75 720.18)">60%</text>
        <text class="cls-12" transform="translate(146.77 720.18)">1%</text>
        <text class="cls-13" transform="translate(921.88 686.25)">
            Distribución del
            <tspan x="0" y="21.33">Agua Mundial</tspan>
        </text>
        <text class="cls-14" transform="translate(693.14 257.8)">33%</text>
        <text class="cls-15" transform="translate(881.9 495.69)">3%</text>
        <text class="cls-16" transform="translate(271.63 447.21)">16%</text>
        <text class="cls-17" transform="translate(528.53 388.7)">10%</text>
        <text class="cls-18" transform="translate(568.75 209.57)">8%</text>
        <text class="cls-19" transform="translate(149.34 187.78)">29%</text>
    </g>
    <g id="Texto_rosado_100_" data-name="Texto rosado 100%">
        <text class="cls-20" transform="matrix(0.6, 0.8, -0.8, 0.6, 58.72, 163.02)">A</text>
        <text class="cls-20" transform="translate(65.66 171.97) rotate(62.75)">m</text>
        <text class="cls-20" transform="translate(72.79 186.24) rotate(71.29)">é</text>
        <text class="cls-20" transform="matrix(0.23, 0.97, -0.97, 0.23, 75.91, 195.55)">r</text>
        <text class="cls-20" transform="matrix(0.15, 0.99, -0.99, 0.15, 77.57, 202.86)">i</text>
        <text class="cls-20" transform="translate(78.47 207.98) rotate(86.23)">c</text>
        <text class="cls-20" transform="translate(79.14 217.48) rotate(92.92)">a</text>
        <text class="cls-20" transform="matrix(-0.14, 0.99, -0.99, -0.14, 78.52, 227.46)"></text>
        <text class="cls-20" transform="translate(77.77 232.77) rotate(100.97)">d</text>
        <text class="cls-20" transform="translate(75.47 243.74) rotate(98.53)">e</text>
        <text class="cls-20" transform="translate(73.92 255.17) rotate(92.11)">l</text>
        <text class="cls-20" transform="translate(73.72 261.7) rotate(87.28)"></text>
        <text class="cls-20" transform="translate(73.93 268.75) rotate(79.93)">N</text>
        <text class="cls-20" transform="translate(76.67 282.92) rotate(71.95)">o</text>
        <text class="cls-20" transform="matrix(0.4, 0.92, -0.92, 0.4, 80.31, 293.72)">r</text>
        <text class="cls-20" transform="translate(83.76 301.61) rotate(62.7)">t</text>
        <text class="cls-20" transform="matrix(0.52, 0.85, -0.85, 0.52, 87.55, 308.98)">e</text>
        <text class="cls-20" transform="translate(203.29 445.76) rotate(54.25)">A</text>
        <text class="cls-20" transform="translate(210.31 455.11) rotate(58.49)">m</text>
        <text class="cls-20" transform="matrix(0.38, 0.92, -0.92, 0.38, 218.52, 468.7)">é</text>
        <text class="cls-20" transform="matrix(0.27, 0.96, -0.96, 0.27, 222.19, 477.75)">r</text>
        <text class="cls-20" transform="matrix(0.19, 0.98, -0.98, 0.19, 224.17, 484.96)">i</text>
        <text class="cls-20" transform="translate(225.28 490.11) rotate(83.08)">c</text>
        <text class="cls-20" transform="matrix(0.05, 1, -1, 0.05, 226.44, 499.71)">a</text>
        <text class="cls-20" transform="translate(226.86 509.91) rotate(89.63)"></text>
        <text class="cls-20" transform="translate(226.92 515.4) rotate(91.07)">d</text>
        <text class="cls-20" transform="translate(226.69 526.13) rotate(91.57)">e</text>
        <text class="cls-20" transform="translate(226.41 536.4) rotate(90.85)">l</text>
        <text class="cls-20" transform="translate(226.33 542.24) rotate(89.44)"></text>
        <text class="cls-20" transform="translate(226.31 548.41) rotate(86.49)">S</text>
        <text class="cls-20" transform="translate(227.12 560.98) rotate(81.02)">u</text>
        <text class="cls-20" transform="translate(229.12 572.81) rotate(74.54)">r</text>
        <text class="cls-20" transform="translate(535.08 547.06) rotate(-13.08)">Á</text>
        <text class="cls-20" transform="translate(547.37 544.18) rotate(-16.33)">f</text>
        <text class="cls-20" transform="translate(554.96 542) rotate(-20.94)">r</text>
        <text class="cls-20" transform="translate(563.41 538.7) rotate(-27.14)">i</text>
        <text class="cls-20" transform="matrix(0.8, -0.6, 0.6, 0.8, 570.19, 535.33)">c</text>
        <text class="cls-20" transform="matrix(0.58, -0.82, 0.82, 0.58, 580.8, 526.82)">a</text>
        <text class="cls-20" transform="matrix(0.5, -0.86, 0.86, 0.5, 484.69, 156.19)">E</text>
        <text class="cls-20" transform="translate(489.55 147.56) rotate(-59.38)">u</text>
        <text class="cls-20" transform="translate(494.87 138.55) rotate(-55.72)">r</text>
        <text class="cls-20" transform="translate(498.94 132.35) rotate(-50.25)">o</text>
        <text class="cls-20" transform="translate(505.05 124.8) rotate(-41.57)">p</text>
        <text class="cls-20" transform="matrix(0.86, -0.51, 0.51, 0.86, 512.52, 118.04)">a</text>
        <text class="cls-20" transform="translate(814.88 509.55) rotate(-90.85)">O</text>
        <text class="cls-20" transform="translate(814.38 496.73) rotate(-86.82)">c</text>
        <text class="cls-20" transform="matrix(0.24, -0.97, 0.97, 0.24, 814.66, 487.6)">e</text>
        <text class="cls-20" transform="matrix(0.5, -0.87, 0.87, 0.5, 816.55, 478.95)">a</text>
        <text class="cls-20" transform="translate(820.56 470.8) rotate(-42.8)">n</text>
        <text class="cls-20" transform="translate(827.85 464.2) rotate(-31.9)">í</text>
        <text class="cls-20" transform="translate(831.81 461.4) rotate(-23.5)">a</text>
        <text class="cls-20" transform="translate(837.12 44.68)">Asia</text>
    </g>
</svg>
